# xmcd
#
# Track frame offsets:
#	150
#	17982
#	41720
#	67778
#	84162
#	99901
#	123852
#	146364
#	165360
#	185935
#	207790
#	229228
#	253857
#
# Disc length: 3647 seconds
#
# Revision: 70124
# Processed by: cddbd v1.5.2PL0 Copyright (c) Steve Scherf et al.
# Submitted via: EZCDAudioConverter 8.0.2.1
#
DISCID=a60e3d0d
DTITLE=Lm.JB.Nguyễn Sang - Tiếng Gọi Fatima
DYEAR=2010
DGENRE=Miscellaneous
TTITLE0=Giời thiệu
TTITLE1=Cung chúc Trinh Vương
TTITLE2=Kìa Bà nào
TTITLE3=Nguyện cầu cho xứ đạo
TTITLE4=Xin vâng
TTITLE5=Ca dao Mẹ dịu hiền
TTITLE6=Khúc hát dâng hoa
TTITLE7=Tiếng Gọi Fatima
TTITLE8=Con xin dâng Mẹ
TTITLE9=Tấu lạy Bà
TTITLE10=Vòng hoa dâng Mẹ
TTITLE11=Tiến dâng Mẹ
TTITLE12=Bông hồng dâng Mẹ
EXTD=
EXTT0=
EXTT1=
EXTT2=
EXTT3=
EXTT4=
EXTT5=
EXTT6=
EXTT7=
EXTT8=
EXTT9=
EXTT10=
EXTT11=
EXTT12=
PLAYORDER=
